<?xml version="1.0" encoding="UTF-8"?>
<svg width="48px" height="48px" viewBox="0 0 48 48" version="1.1" xmlns="http://www.w3.org/2000/svg" xmlns:xlink="http://www.w3.org/1999/xlink">
    <!-- Generator: Sketch 60.1 (88133) - https://sketch.com -->
    <title>facebook</title>
    <desc>Created with Sketch.</desc>
    <defs>
        <path d="M37.3749733,11.5312224 L37.3749733,34.6731114 C37.3749733,35.4687047 36.7119513,36.1075021 35.8996001,36.1075021 L29.0782389,36.1075021 L29.0782389,26.0377316 L32.5546244,26.0377316 L33.0742902,22.1120309 L29.0722657,22.1120309 L29.0722657,19.6032991 C29.0722657,18.4650783 29.394817,17.6927141 31.0732781,17.6927141 L33.2116731,17.6927141 L33.2116731,14.1793282 C32.8413366,14.1328702 31.5750244,14.0225324 30.0936779,14.0225324 C27.0115218,14.0225324 24.8970193,15.851816 24.8970193,19.2142135 L24.8970193,22.1120309 L21.4086876,22.1120309 L21.4086876,26.0377316 L24.8970193,26.0377316 L24.8970193,36.1133093 L12.090541,36.1133093 C11.2781898,36.1133093 10.6151678,35.4687047 10.6151678,34.6789187 L10.6151678,11.5312224 C10.6151678,10.7414365 11.2781898,10.0968318 12.090541,10.0968318 L35.8936269,10.0968318 C36.7119513,10.0968318 37.3749733,10.7414365 37.3749733,11.5312224 Z" id="path-1"></path>
    </defs>
    <g id="Symbols" stroke="none" stroke-width="1" fill="none" fill-rule="evenodd">
        <g id="global/footer" transform="translate(-1112.000000, -345.000000)">
            <g id="footer">
                <g id="middle" transform="translate(120.000000, 254.000000)">
                    <g id="contact" transform="translate(926.000000, 0.000000)">
                        <g id="social" transform="translate(0.000000, 91.000000)">
                            <g id="facebook" transform="translate(66.000000, 0.000000)">
                                <circle id="Oval-Copy" fill="#503F44" cx="24" cy="24" r="24"></circle>
                                <mask id="mask-2" fill="white">
                                    <use xlink:href="#path-1"></use>
                                </mask>
                                <use id="path-1" fill="#2C1C20" xlink:href="#path-1"></use>
                            </g>
                        </g>
                    </g>
                </g>
            </g>
        </g>
    </g>
</svg>