<?xml version="1.0" encoding="UTF-8"?>
<svg width="48px" height="48px" viewBox="0 0 48 48" version="1.1" xmlns="http://www.w3.org/2000/svg" xmlns:xlink="http://www.w3.org/1999/xlink">
    <!-- Generator: Sketch 60.1 (88133) - https://sketch.com -->
    <title>instagram</title>
    <desc>Created with Sketch.</desc>
    <defs>
        <path d="M14.1007441,7.06715578 C10.1002653,7.06715578 6.87346409,10.2060743 6.87346409,14.0975991 C6.87346409,17.9891238 10.1002653,21.1280423 14.1007441,21.1280423 C18.1012229,21.1280423 21.3280241,17.9891238 21.3280241,14.0975991 C21.3280241,10.2060743 18.1012229,7.06715578 14.1007441,7.06715578 Z M14.1007441,18.6683049 C11.515529,18.6683049 9.40206857,16.6185239 9.40206857,14.0975991 C9.40206857,11.5766742 11.509239,9.52689312 14.1007441,9.52689312 C16.6922492,9.52689312 18.7994196,11.5766742 18.7994196,14.0975991 C18.7994196,16.6185239 16.6859591,18.6683049 14.1007441,18.6683049 Z M23.3093934,6.77957455 C23.3093934,7.69126824 22.554586,8.41939944 21.623657,8.41939944 C20.686438,8.41939944 19.9379206,7.68514949 19.9379206,6.77957455 C19.9379206,5.87399961 20.692728,5.13974966 21.623657,5.13974966 C22.554586,5.13974966 23.3093934,5.87399961 23.3093934,6.77957455 Z M28.0961296,8.44387444 C27.9891987,6.24724333 27.4734136,4.30148096 25.8191275,2.69836857 C24.1711317,1.09525618 22.1708923,0.59351871 19.9127605,0.483381218 C17.5854378,0.354887476 10.6097603,0.354887476 8.28243773,0.483381218 C6.03059591,0.587399961 4.03035653,1.08913743 2.37607051,2.69224982 C0.721784495,4.29536221 0.212289558,6.24112458 0.0990684666,8.43775569 C-0.0330228255,10.701693 -0.0330228255,17.4873863 0.0990684666,19.7513237 C0.205999492,21.9479549 0.721784495,23.8937171 2.37607051,25.4968296 C4.03035653,27.099942 6.02430586,27.6016795 8.28243773,27.711817 C10.6097603,27.8403106 17.5854378,27.8403106 19.9127605,27.711817 C22.1708923,27.6077982 24.1711317,27.1060607 25.8191275,25.4968296 C27.4671235,23.8937172 27.9829086,21.9479549 28.0961296,19.7513237 C28.228221,17.4873863 28.228221,10.7078118 28.0961296,8.44387444 Z M25.0894806,22.1804672 C24.5988558,23.3797421 23.6490565,24.3036734 22.4099145,24.7870545 C20.5543466,25.5029483 16.1513039,25.337742 14.1007441,25.337742 C12.0501842,25.337742 7.64085151,25.4968295 5.7915736,24.7870545 C4.55872166,24.3097921 3.60892245,23.3858609 3.11200765,22.1804672 C2.37607051,20.3754361 2.54590216,16.0923114 2.54590216,14.0975991 C2.54590216,12.1028867 2.38236058,7.81364323 3.11200765,6.01473085 C3.6026324,4.81545593 4.55243161,3.89152474 5.7915736,3.40814352 C7.64714158,2.69224982 12.0501842,2.85745606 14.1007441,2.85745606 C16.1513039,2.85745606 20.5606366,2.69836857 22.4099145,3.40814352 C23.6427665,3.88540599 24.5925658,4.80933718 25.0894806,6.01473085 C25.8254177,7.81976198 25.655586,12.1028867 25.655586,14.0975991 C25.655586,16.0923114 25.8254177,20.3815548 25.0894806,22.1804672 Z" id="path-1"></path>
    </defs>
    <g id="Symbols" stroke="none" stroke-width="1" fill="none" fill-rule="evenodd">
        <g id="global/footer" transform="translate(-1178.000000, -345.000000)">
            <g id="footer">
                <g id="middle" transform="translate(120.000000, 254.000000)">
                    <g id="contact" transform="translate(926.000000, 0.000000)">
                        <g id="social" transform="translate(0.000000, 91.000000)">
                            <g id="instagram" transform="translate(132.000000, 0.000000)">
                                <circle id="Oval-Copy-2" fill="#503F44" cx="24" cy="24" r="24"></circle>
                                <g transform="translate(10.000000, 10.000000)" fill="#000000" fill-rule="nonzero" id="path-1">
                                    <path d="M14.1007441,7.06715578 C10.1002653,7.06715578 6.87346409,10.2060743 6.87346409,14.0975991 C6.87346409,17.9891238 10.1002653,21.1280423 14.1007441,21.1280423 C18.1012229,21.1280423 21.3280241,17.9891238 21.3280241,14.0975991 C21.3280241,10.2060743 18.1012229,7.06715578 14.1007441,7.06715578 Z M14.1007441,18.6683049 C11.515529,18.6683049 9.40206857,16.6185239 9.40206857,14.0975991 C9.40206857,11.5766742 11.509239,9.52689312 14.1007441,9.52689312 C16.6922492,9.52689312 18.7994196,11.5766742 18.7994196,14.0975991 C18.7994196,16.6185239 16.6859591,18.6683049 14.1007441,18.6683049 Z M23.3093934,6.77957455 C23.3093934,7.69126824 22.554586,8.41939944 21.623657,8.41939944 C20.686438,8.41939944 19.9379206,7.68514949 19.9379206,6.77957455 C19.9379206,5.87399961 20.692728,5.13974966 21.623657,5.13974966 C22.554586,5.13974966 23.3093934,5.87399961 23.3093934,6.77957455 Z M28.0961296,8.44387444 C27.9891987,6.24724333 27.4734136,4.30148096 25.8191275,2.69836857 C24.1711317,1.09525618 22.1708923,0.59351871 19.9127605,0.483381218 C17.5854378,0.354887476 10.6097603,0.354887476 8.28243773,0.483381218 C6.03059591,0.587399961 4.03035653,1.08913743 2.37607051,2.69224982 C0.721784495,4.29536221 0.212289558,6.24112458 0.0990684666,8.43775569 C-0.0330228255,10.701693 -0.0330228255,17.4873863 0.0990684666,19.7513237 C0.205999492,21.9479549 0.721784495,23.8937171 2.37607051,25.4968296 C4.03035653,27.099942 6.02430586,27.6016795 8.28243773,27.711817 C10.6097603,27.8403106 17.5854378,27.8403106 19.9127605,27.711817 C22.1708923,27.6077982 24.1711317,27.1060607 25.8191275,25.4968296 C27.4671235,23.8937172 27.9829086,21.9479549 28.0961296,19.7513237 C28.228221,17.4873863 28.228221,10.7078118 28.0961296,8.44387444 Z M25.0894806,22.1804672 C24.5988558,23.3797421 23.6490565,24.3036734 22.4099145,24.7870545 C20.5543466,25.5029483 16.1513039,25.337742 14.1007441,25.337742 C12.0501842,25.337742 7.64085151,25.4968295 5.7915736,24.7870545 C4.55872166,24.3097921 3.60892245,23.3858609 3.11200765,22.1804672 C2.37607051,20.3754361 2.54590216,16.0923114 2.54590216,14.0975991 C2.54590216,12.1028867 2.38236058,7.81364323 3.11200765,6.01473085 C3.6026324,4.81545593 4.55243161,3.89152474 5.7915736,3.40814352 C7.64714158,2.69224982 12.0501842,2.85745606 14.1007441,2.85745606 C16.1513039,2.85745606 20.5606366,2.69836857 22.4099145,3.40814352 C23.6427665,3.88540599 24.5925658,4.80933718 25.0894806,6.01473085 C25.8254177,7.81976198 25.655586,12.1028867 25.655586,14.0975991 C25.655586,16.0923114 25.8254177,20.3815548 25.0894806,22.1804672 Z"></path>
                                </g>
                                <g id="Colors/5th-Clipped" transform="translate(10.000000, 10.000000)">
                                    <mask id="mask-2" fill="white">
                                        <use xlink:href="#path-1"></use>
                                    </mask>
                                    <use id="path-1" fill="#2C1C20" xlink:href="#path-1"></use>
                                </g>
                            </g>
                        </g>
                    </g>
                </g>
            </g>
        </g>
    </g>
</svg>