<?xml version="1.0" encoding="UTF-8"?>
<svg width="200px" height="41px" viewBox="0 0 200 41" version="1.1" xmlns="http://www.w3.org/2000/svg" xmlns:xlink="http://www.w3.org/1999/xlink">
    <!-- Generator: Sketch 60.1 (88133) - https://sketch.com -->
    <title>LH_logo_primary</title>
    <desc>Created with Sketch.</desc>
    <g id="Symbols" stroke="none" stroke-width="1" fill="none" fill-rule="evenodd">
        <g id="global/footer" transform="translate(-122.000000, -348.000000)" fill-rule="nonzero">
            <g id="footer">
                <g id="middle" transform="translate(120.000000, 254.000000)">
                    <g id="LH_logo_primary" transform="translate(2.000000, 94.000000)">
                        <g id="Group" transform="translate(48.456057, 4.275534)" fill="#C6C6C6">
                            <g>
                                <polygon id="Path" points="10.175772 19.0213777 0.228028504 19.0213777 0.228028504 0.299287411 3.59619952 0.299287411 3.59619952 15.9192399 10.175772 15.9192399"></polygon>
                                <path d="M20.5273159,18.0332542 C20.0807601,18.4275534 19.4774347,18.7458432 18.7078385,18.9976247 C17.9429929,19.2494062 17.1401425,19.3729216 16.2992874,19.3729216 C15.3729216,19.3729216 14.5748219,19.2114014 13.9049881,18.8931116 C13.2351544,18.5700713 12.6888361,18.1092637 12.2612827,17.5011876 C11.8337292,16.8978622 11.5154394,16.1615202 11.3111639,15.2969121 C11.1068884,14.432304 11.0023753,13.4489311 11.0023753,12.3420428 C11.0023753,9.93349169 11.4774347,8.1567696 12.432304,7.00712589 C13.3871734,5.85748219 14.7078385,5.28266033 16.4038005,5.28266033 C16.9738717,5.28266033 17.5249406,5.36817102 18.0617577,5.53444181 C18.5985748,5.70546318 19.0736342,5.99049881 19.4916865,6.38954869 C19.9097387,6.78859857 20.2517815,7.32541568 20.5083135,7.99524941 C20.7648456,8.66508314 20.8978622,9.50593824 20.8978622,10.5225653 C20.8978622,10.9168646 20.8741093,11.3349169 20.8313539,11.7814727 C20.7885986,12.2280285 20.7173397,12.7078385 20.631829,13.2256532 L14.1330166,13.2256532 C14.1710214,14.3325416 14.3990499,15.1781473 14.8266033,15.7672209 C15.2541568,16.3562945 15.9429929,16.6508314 16.8836105,16.6508314 C17.4536817,16.6508314 17.976247,16.5605701 18.4465558,16.3847981 C18.9168646,16.2090261 19.2779097,16.0190024 19.5296912,15.824228 L20.5273159,18.0332542 Z M16.3562945,8 C15.6769596,8 15.1686461,8.27078385 14.8313539,8.81710214 C14.4940618,9.36342043 14.2945368,10.1235154 14.2422803,11.1021378 L17.9334917,11.1021378 C17.9857482,10.0855107 17.8812352,9.31591449 17.6104513,8.78859857 C17.3444181,8.26603325 16.9263658,8 16.3562945,8 Z" id="Shape"></path>
                                <path d="M23.6579572,0.299287411 C23.9809976,0.247030879 24.3420428,0.204275534 24.7410926,0.180522565 C25.1401425,0.156769596 25.5534442,0.128266033 25.9714964,0.0997624703 C26.3895487,0.0712589074 26.7980998,0.0570071259 27.1876485,0.0475059382 C27.5819477,0.0380047506 27.9287411,0.0332541568 28.2327791,0.0332541568 C29.7102138,0.0332541568 30.9453682,0.26128266 31.9382423,0.717339667 C32.9311164,1.17339667 33.719715,1.81472684 34.3182898,2.64133017 C34.9168646,3.47268409 35.3396675,4.46555819 35.5866983,5.62470309 C35.8337292,6.78384798 35.9619952,8.0760095 35.9619952,9.50118765 C35.9619952,10.8028504 35.8432304,12.0475059 35.6009501,13.2304038 C35.3586698,14.4180523 34.935867,15.4584323 34.3325416,16.3610451 C33.7244656,17.263658 32.9073634,17.9809976 31.871734,18.5130641 C30.8361045,19.0451306 29.5344418,19.3159145 27.9667458,19.3159145 C27.7339667,19.3159145 27.4204276,19.3064133 27.0308789,19.2874109 C26.6365796,19.2684086 26.2280285,19.2494062 25.8004751,19.2209026 C25.3729216,19.192399 24.9643705,19.1686461 24.5700713,19.1401425 C24.175772,19.111639 23.8764846,19.0831354 23.6627078,19.0451306 L23.6627078,0.299287411 L23.6579572,0.299287411 Z M28.5748219,3.13539192 C28.2897862,3.13539192 28,3.14014252 27.7054632,3.14964371 C27.4109264,3.15914489 27.1828979,3.18289786 27.0213777,3.21615202 L27.0213777,16.1045131 C27.0736342,16.1235154 27.1686461,16.1377672 27.3016627,16.1425178 C27.4346793,16.152019 27.5771971,16.1615202 27.7292162,16.1710214 C27.8812352,16.1805226 28.023753,16.1900238 28.1567696,16.1995249 C28.2897862,16.2090261 28.3847981,16.2137767 28.4370546,16.2137767 C29.239905,16.2137767 29.9002375,16.0285036 30.4180523,15.6532067 C30.935867,15.2779097 31.3396675,14.7790974 31.6342043,14.1567696 C31.9287411,13.5344418 32.1330166,12.8171021 32.2470309,12.0047506 C32.3610451,11.192399 32.4228029,10.3420428 32.4228029,9.44893112 C32.4228029,8.62707838 32.3752969,7.83372922 32.2755344,7.06888361 C32.175772,6.304038 31.9904988,5.62945368 31.7149644,5.04988124 C31.4394299,4.47030879 31.0451306,4.00475059 30.5368171,3.65795724 C30.0332542,3.3064133 29.3776722,3.13539192 28.5748219,3.13539192 Z" id="Shape"></path>
                                <path d="M47.6199525,18.0332542 C47.1733967,18.4275534 46.5700713,18.7458432 45.8004751,18.9976247 C45.0356295,19.2494062 44.2327791,19.3729216 43.391924,19.3729216 C42.4655582,19.3729216 41.6674584,19.2114014 40.9976247,18.8931116 C40.327791,18.5700713 39.7814727,18.1092637 39.3539192,17.5011876 C38.9263658,16.8978622 38.608076,16.1615202 38.4038005,15.2969121 C38.1995249,14.432304 38.0950119,13.4489311 38.0950119,12.3420428 C38.0950119,9.93349169 38.5700713,8.1567696 39.5249406,7.00712589 C40.47981,5.85748219 41.8004751,5.28266033 43.4964371,5.28266033 C44.0665083,5.28266033 44.6175772,5.36817102 45.1543943,5.53444181 C45.6912114,5.70546318 46.1662708,5.99049881 46.584323,6.38954869 C47.0023753,6.78859857 47.3444181,7.32541568 47.6009501,7.99524941 C47.8574822,8.66508314 47.9904988,9.50593824 47.9904988,10.5225653 C47.9904988,10.9168646 47.9667458,11.3349169 47.9239905,11.7814727 C47.8812352,12.2280285 47.8099762,12.7078385 47.7244656,13.2256532 L41.2256532,13.2256532 C41.263658,14.3325416 41.4916865,15.1781473 41.9192399,15.7672209 C42.3467933,16.3562945 43.0356295,16.6508314 43.976247,16.6508314 C44.5463183,16.6508314 45.0688836,16.5605701 45.5391924,16.3847981 C46.0095012,16.2090261 46.3705463,16.0190024 46.6223278,15.824228 L47.6199525,18.0332542 Z M43.4489311,8 C42.7695962,8 42.2612827,8.27078385 41.9239905,8.81710214 C41.5866983,9.36342043 41.3871734,10.1235154 41.3349169,11.1021378 L45.0261283,11.1021378 C45.0783848,10.0855107 44.9738717,9.31591449 44.7030879,8.78859857 C44.4370546,8.26603325 44.0190024,8 43.4489311,8 Z" id="Shape"></path>
                                <path d="M57.0071259,8.80285036 C56.5795724,8.64133017 56.1852732,8.56057007 55.8289786,8.56057007 C55.3491686,8.56057007 54.9311164,8.6935867 54.584323,8.95961995 C54.2375297,9.22565321 54,9.60095012 53.8764846,10.0807601 L53.8764846,19.0118765 L50.6935867,19.0118765 L50.6935867,5.64845606 L53.1258907,5.64845606 L53.5011876,7.25415677 L53.6104513,7.25415677 C53.8432304,6.66508314 54.175772,6.20902613 54.6128266,5.87648456 C55.0498812,5.54869359 55.5534442,5.3824228 56.1235154,5.3824228 C56.5510689,5.3824228 56.9691211,5.47268409 57.3824228,5.64845606 L57.0071259,8.80285036 Z" id="Path"></path>
                                <path d="M59.1211401,1.87648456 C59.1211401,1.33966746 59.2921615,0.897862233 59.6294537,0.551068884 C59.9667458,0.204275534 60.4513064,0.0285035629 61.0736342,0.0285035629 C61.695962,0.0285035629 62.1947743,0.199524941 62.5700713,0.536817102 C62.9453682,0.874109264 63.1306413,1.32066508 63.1306413,1.87173397 C63.1306413,2.42280285 62.9453682,2.85985748 62.5700713,3.18289786 C62.1947743,3.50593824 61.695962,3.66270784 61.0736342,3.66270784 C60.4513064,3.66270784 59.9667458,3.49643705 59.6294537,3.16864608 C59.2874109,2.8456057 59.1211401,2.41330166 59.1211401,1.87648456 Z M59.4679335,5.64845606 L62.6508314,5.64845606 L62.6508314,19.0213777 L59.4679335,19.0213777 L59.4679335,5.64845606 Z" id="Shape"></path>
                                <path d="M73.7767221,18.2992874 C73.3301663,18.6555819 72.7980998,18.9216152 72.1710214,19.1021378 C71.5486936,19.2826603 70.9216152,19.368171 70.2992874,19.368171 C69.391924,19.368171 68.6270784,19.2019002 68.0142518,18.8741093 C67.4014252,18.5463183 66.8931116,18.0712589 66.5035629,17.4584323 C66.1092637,16.8456057 65.8289786,16.1045131 65.6627078,15.239905 C65.4916865,14.3752969 65.4061758,13.4061758 65.4061758,12.3372922 C65.4061758,10 65.824228,8.24703088 66.6650831,7.06888361 C67.5011876,5.89073634 68.7315914,5.30166271 70.3562945,5.30166271 C71.1591449,5.30166271 71.8147268,5.37292162 72.3230404,5.51543943 C72.8313539,5.65795724 73.2826603,5.83847981 73.672209,6.05225653 L72.9216152,8.69833729 C72.5985748,8.5368171 72.2945368,8.41805226 72,8.33729216 C71.7054632,8.25653207 71.3539192,8.21852732 70.9453682,8.21852732 C70.1947743,8.21852732 69.6342043,8.54631829 69.2589074,9.19714964 C68.8836105,9.847981 68.6983373,10.8931116 68.6983373,12.3420428 C68.6983373,13.5534442 68.888361,14.5463183 69.2731591,15.3111639 C69.6579572,16.0760095 70.2660333,16.4608076 71.1068884,16.4608076 C71.5534442,16.4608076 71.9334917,16.4038005 72.2422803,16.2850356 C72.5558195,16.1710214 72.8456057,16.023753 73.111639,15.8432304 L73.7767221,18.2992874 Z" id="Path"></path>
                                <polygon id="Path" points="79.847981 13.4869359 79.0973872 13.4869359 79.0973872 19.0213777 75.9144893 19.0213777 75.9144893 0.299287411 79.0973872 0.299287411 79.0973872 11.3444181 79.7387173 10.9691211 81.9572447 5.64845606 85.4061758 5.64845606 82.9453682 10.9453682 81.7957245 11.8527316 83.0546318 12.760095 85.7814727 19.0166271 82.1995249 19.0166271"></polygon>
                                <polygon id="Path" points="101.619952 11.1068884 96.5130641 11.1068884 96.5130641 19.0213777 93.1448931 19.0213777 93.1448931 0.299287411 96.5130641 0.299287411 96.5130641 8 101.619952 8 101.619952 0.299287411 104.988124 0.299287411 104.988124 19.0213777 101.619952 19.0213777"></polygon>
                                <path d="M107.529691,12.3372922 C107.529691,9.96674584 107.995249,8.19952494 108.921615,7.04038005 C109.847981,5.88123515 111.140143,5.30166271 112.7981,5.30166271 C114.579572,5.30166271 115.909739,5.89073634 116.783848,7.06888361 C117.657957,8.24703088 118.095012,10 118.095012,12.3372922 C118.095012,14.7268409 117.629454,16.4940618 116.703088,17.6437055 C115.776722,18.7933492 114.475059,19.368171 112.7981,19.368171 C109.28266,19.368171 107.529691,17.0261283 107.529691,12.3372922 Z M110.817102,12.3372922 C110.817102,13.672209 110.969121,14.7078385 111.273159,15.4394299 C111.577197,16.1710214 112.085511,16.5368171 112.7981,16.5368171 C113.477435,16.5368171 113.980998,16.2185273 114.308789,15.5866983 C114.63658,14.9548694 114.80285,13.871734 114.80285,12.3372922 C114.80285,10.9643705 114.650831,9.9192399 114.346793,9.20665083 C114.042755,8.49406176 113.524941,8.13776722 112.793349,8.13776722 C112.171021,8.13776722 111.68171,8.45605701 111.334917,9.08788599 C110.992874,9.71971496 110.817102,10.8028504 110.817102,12.3372922 Z" id="Shape"></path>
                                <path d="M126.893112,8.80285036 C126.465558,8.64133017 126.071259,8.56057007 125.714964,8.56057007 C125.235154,8.56057007 124.817102,8.6935867 124.470309,8.95961995 C124.123515,9.22565321 123.885986,9.60095012 123.76247,10.0807601 L123.76247,19.0118765 L120.579572,19.0118765 L120.579572,5.64845606 L123.011876,5.64845606 L123.387173,7.25415677 L123.496437,7.25415677 C123.729216,6.66508314 124.061758,6.20902613 124.498812,5.87648456 C124.935867,5.54869359 125.43943,5.3824228 126.009501,5.3824228 C126.437055,5.3824228 126.855107,5.47268409 127.268409,5.64845606 L126.893112,8.80285036 Z" id="Path"></path>
                                <path d="M135.719715,19.0213777 L135.719715,10.8931116 C135.719715,9.91448931 135.605701,9.22565321 135.372922,8.83610451 C135.140143,8.44180523 134.750594,8.24703088 134.194774,8.24703088 C133.729216,8.24703088 133.330166,8.38954869 132.992874,8.67458432 C132.655582,8.95961995 132.413302,9.31591449 132.270784,9.74346793 L132.270784,19.0261283 L129.087886,19.0261283 L129.087886,5.64845606 L131.629454,5.64845606 L132.004751,7.20190024 L132.085511,7.20190024 C132.408551,6.68408551 132.840855,6.24228029 133.396675,5.87648456 C133.947743,5.51068884 134.669834,5.33016627 135.562945,5.33016627 C136.099762,5.33016627 136.574822,5.41092637 136.992874,5.57244656 C137.410926,5.73396675 137.76247,5.99524941 138.047506,6.36104513 C138.332542,6.72684086 138.546318,7.21615202 138.688836,7.83372922 C138.831354,8.44655582 138.902613,9.21140143 138.902613,10.1187648 L138.902613,19.0261283 L135.719715,19.0261283 L135.719715,19.0213777 Z" id="Path"></path>
                                <path d="M150.80285,18.0332542 C150.356295,18.4275534 149.752969,18.7458432 148.983373,18.9976247 C148.218527,19.2494062 147.415677,19.3729216 146.574822,19.3729216 C145.648456,19.3729216 144.850356,19.2114014 144.180523,18.8931116 C143.510689,18.5700713 142.964371,18.1092637 142.536817,17.5011876 C142.109264,16.8978622 141.790974,16.1615202 141.586698,15.2969121 C141.382423,14.432304 141.27791,13.4489311 141.27791,12.3420428 C141.27791,9.93349169 141.752969,8.1567696 142.707838,7.00712589 C143.662708,5.85748219 144.983373,5.28266033 146.679335,5.28266033 C147.249406,5.28266033 147.800475,5.36817102 148.337292,5.53444181 C148.874109,5.70546318 149.349169,5.99049881 149.767221,6.38954869 C150.185273,6.78859857 150.527316,7.32541568 150.783848,7.99524941 C151.04038,8.66508314 151.173397,9.50593824 151.173397,10.5225653 C151.173397,10.9168646 151.149644,11.3349169 151.106888,11.7814727 C151.064133,12.2280285 150.992874,12.7078385 150.907363,13.2256532 L144.408551,13.2256532 C144.446556,14.3325416 144.674584,15.1781473 145.102138,15.7672209 C145.529691,16.3562945 146.218527,16.6508314 147.159145,16.6508314 C147.729216,16.6508314 148.251781,16.5605701 148.72209,16.3847981 C149.192399,16.2090261 149.553444,16.0190024 149.805226,15.824228 L150.80285,18.0332542 Z M146.631829,8 C145.952494,8 145.444181,8.27078385 145.106888,8.81710214 C144.769596,9.36342043 144.570071,10.1235154 144.517815,11.1021378 L148.209026,11.1021378 C148.261283,10.0855107 148.15677,9.31591449 147.885986,8.78859857 C147.619952,8.26603325 147.2019,8 146.631829,8 Z" id="Shape"></path>
                            </g>
                            <g transform="translate(0.000000, 27.553444)">
                                <path d="M0.199524941,0.465558195 C0.418052257,0.413301663 0.650831354,0.380047506 0.902612827,0.361045131 C1.1543943,0.342042755 1.40142518,0.337292162 1.64845606,0.337292162 C1.90973872,0.337292162 2.17577197,0.361045131 2.44655582,0.413301663 C2.71733967,0.465558195 2.96437055,0.560570071 3.18764846,0.693586698 C3.41092637,0.831353919 3.59144893,1.01662708 3.72921615,1.25890736 C3.86698337,1.50118765 3.93824228,1.80522565 3.93824228,2.17577197 C3.93824228,2.5415677 3.87173397,2.85035629 3.74346793,3.09738717 C3.61045131,3.34916865 3.43942993,3.55344418 3.22090261,3.71021378 C3.0023753,3.86698337 2.75534442,3.98099762 2.47505938,4.04750594 C2.19477435,4.11401425 1.90973872,4.152019 1.61045131,4.152019 C1.58194774,4.152019 1.53444181,4.152019 1.46793349,4.152019 C1.40142518,4.152019 1.33491686,4.152019 1.26365796,4.14726841 C1.19239905,4.14251781 1.12114014,4.13776722 1.05463183,4.13301663 C0.988123515,4.12826603 0.935866983,4.12351544 0.90736342,4.11401425 L0.90736342,6.38954869 L0.199524941,6.38954869 L0.199524941,0.465558195 L0.199524941,0.465558195 Z M1.66270784,0.950118765 C1.51543943,0.950118765 1.37292162,0.954869359 1.23515439,0.959619952 C1.09738717,0.964370546 0.988123515,0.978622328 0.912114014,1.0023753 L0.912114014,3.48218527 C0.940617577,3.49168646 0.988123515,3.50118765 1.04988124,3.50118765 C1.11163895,3.50593824 1.17814727,3.50593824 1.24465558,3.51068884 C1.3111639,3.51543943 1.37767221,3.51543943 1.43942993,3.51543943 C1.50118765,3.51543943 1.54869359,3.51543943 1.57719715,3.51543943 C1.7719715,3.51543943 1.96199525,3.49643705 2.152019,3.4584323 C2.34204276,3.42042755 2.51781473,3.35391924 2.66983373,3.25890736 C2.82185273,3.16389549 2.94536817,3.02612827 3.04038005,2.85035629 C3.13539192,2.67458432 3.18289786,2.44655582 3.18289786,2.17577197 C3.18289786,1.94299287 3.14014252,1.74821853 3.04988124,1.59144893 C2.95961995,1.43467933 2.8456057,1.3111639 2.69833729,1.21615202 C2.55106888,1.12114014 2.38954869,1.05463183 2.20427553,1.01662708 C2.01900238,0.978622328 1.8432304,0.950118765 1.66270784,0.950118765 Z" id="Shape"></path>
                                <path d="M6.03800475,3.39667458 C6.03800475,2.39904988 6.24703088,1.63420428 6.66983373,1.10213777 C7.09263658,0.570071259 7.6912114,0.304038005 8.47505938,0.304038005 C8.89786223,0.304038005 9.26365796,0.380047506 9.56769596,0.527315914 C9.87648456,0.674584323 10.128266,0.883610451 10.3325416,1.1543943 C10.5368171,1.42517815 10.6840855,1.74821853 10.783848,2.12826603 C10.8836105,2.50831354 10.9311164,2.93111639 10.9311164,3.39667458 C10.9311164,4.39429929 10.7173397,5.15914489 10.2945368,5.6912114 C9.87173397,6.22327791 9.26365796,6.48931116 8.47505938,6.48931116 C8.05700713,6.48931116 7.70071259,6.41330166 7.39192399,6.26603325 C7.08788599,6.11876485 6.83135392,5.90973872 6.63182898,5.63895487 C6.42755344,5.36817102 6.28028504,5.04513064 6.18527316,4.66508314 C6.08551069,4.28978622 6.03800475,3.86698337 6.03800475,3.39667458 Z M6.78859857,3.39667458 C6.78859857,3.72921615 6.82185273,4.04275534 6.88836105,4.33729216 C6.95486936,4.63182898 7.05463183,4.89311164 7.19239905,5.12114014 C7.33016627,5.34441805 7.50593824,5.52494062 7.71971496,5.65795724 C7.93349169,5.79097387 8.18527316,5.85748219 8.47505938,5.85748219 C9.00712589,5.85748219 9.42042755,5.65795724 9.72446556,5.25415677 C10.0285036,4.85035629 10.175772,4.2327791 10.175772,3.39192399 C10.175772,3.06888361 10.1425178,2.75534442 10.0760095,2.45605701 C10.0095012,2.1567696 9.90973872,1.89548694 9.7672209,1.66745843 C9.62945368,1.44418052 9.44893112,1.26365796 9.23515439,1.13064133 C9.02137767,0.997624703 8.76484561,0.93111639 8.47030879,0.93111639 C7.94774347,0.93111639 7.53444181,1.13064133 7.23515439,1.53444181 C6.93586698,1.93824228 6.78859857,2.56057007 6.78859857,3.39667458 Z" id="Shape"></path>
                                <polygon id="Path" points="13.5866983 0.403800475 16.8456057 0.403800475 16.8456057 1.03562945 14.2992874 1.03562945 14.2992874 2.99287411 16.631829 2.99287411 16.631829 3.62470309 14.2992874 3.62470309 14.2992874 5.75296912 16.888361 5.75296912 16.888361 6.3847981 13.5866983 6.3847981"></polygon>
                                <polygon id="Path" points="23.4916865 1.04038005 21.6294537 1.04038005 21.6294537 6.39429929 20.9216152 6.39429929 20.9216152 1.04038005 19.0593824 1.04038005 19.0593824 0.408551069 23.4964371 0.408551069 23.4964371 1.04038005"></polygon>
                                <path d="M30.6888361,4.09501188 L29.3206651,6.04750594 L28.8741093,5.68646081 L29.695962,4.45130641 L30.1140143,4.09976247 L29.695962,3.79097387 L28.8218527,2.58907363 L29.2684086,2.22327791 L30.6888361,4.09501188 Z M32.2470309,4.09501188 L30.8788599,6.06650831 L30.4180523,5.695962 L31.2541568,4.45130641 L31.6627078,4.09976247 L31.2541568,3.79097387 L30.3657957,2.57957245 L30.8171021,2.20427553 L32.2470309,4.09501188 Z" id="Shape"></path>
                                <path d="M41.1971496,4.86935867 C41.1971496,4.63182898 41.1258907,4.43230404 40.9833729,4.28503563 C40.8408551,4.13301663 40.6650831,4 40.4513064,3.88123515 C40.2375297,3.76247031 40.0047506,3.65320665 39.7529691,3.55344418 C39.5011876,3.44893112 39.2684086,3.32541568 39.0546318,3.18289786 C38.8408551,3.03562945 38.6603325,2.85985748 38.5225653,2.64608076 C38.3800475,2.43230404 38.3087886,2.16152019 38.3087886,1.82897862 C38.3087886,1.36342043 38.4703088,0.992874109 38.7980998,0.717339667 C39.1211401,0.441805226 39.5866983,0.308788599 40.1852732,0.308788599 C40.5320665,0.308788599 40.8503563,0.332541568 41.1353919,0.3847981 C41.4204276,0.437054632 41.6437055,0.503562945 41.8004751,0.579572447 L41.5866983,1.21140143 C41.4536817,1.14489311 41.263658,1.08313539 41.0118765,1.02612827 C40.760095,0.96912114 40.4703088,0.935866983 40.152019,0.935866983 C39.7767221,0.935866983 39.4916865,1.02137767 39.3064133,1.18764846 C39.1163895,1.35391924 39.0261283,1.55344418 39.0261283,1.78147268 C39.0261283,2.00475059 39.0973872,2.19002375 39.239905,2.33729216 C39.3824228,2.48456057 39.5581948,2.6175772 39.7719715,2.73634204 C39.9857482,2.85510689 40.2185273,2.96912114 40.4703088,3.08313539 C40.7220903,3.19714964 40.9548694,3.33016627 41.1686461,3.48218527 C41.3824228,3.63420428 41.5629454,3.81472684 41.7007126,4.02375297 C41.8432304,4.2327791 41.9144893,4.49881235 41.9144893,4.81235154 C41.9144893,5.06888361 41.8669834,5.30166271 41.7767221,5.50593824 C41.6864608,5.71021378 41.5534442,5.88598575 41.3729216,6.03800475 C41.192399,6.19002375 40.9833729,6.29928741 40.7315914,6.38004751 C40.47981,6.4608076 40.1947743,6.49881235 39.8764846,6.49881235 C39.4489311,6.49881235 39.0973872,6.46555819 38.8171021,6.39904988 C38.5368171,6.33254157 38.3230404,6.26128266 38.1662708,6.18052257 L38.4038005,5.54869359 C38.5368171,5.61995249 38.7268409,5.6912114 38.9833729,5.76247031 C39.239905,5.83372922 39.5296912,5.86698337 39.847981,5.86698337 C40.0380048,5.86698337 40.2137767,5.847981 40.3800475,5.80997625 C40.5463183,5.7719715 40.6888361,5.71496437 40.807601,5.62945368 C40.9263658,5.54869359 41.0213777,5.44418052 41.0926366,5.31591449 C41.1638955,5.18764846 41.1971496,5.04038005 41.1971496,4.86935867 Z" id="Path"></path>
                                <path d="M44.4940618,0.465558195 C44.7125891,0.413301663 44.9453682,0.380047506 45.1971496,0.361045131 C45.4489311,0.342042755 45.695962,0.337292162 45.9429929,0.337292162 C46.2042755,0.337292162 46.4703088,0.361045131 46.7410926,0.413301663 C47.0118765,0.465558195 47.2589074,0.560570071 47.4821853,0.693586698 C47.7054632,0.831353919 47.8859857,1.01662708 48.023753,1.25890736 C48.1615202,1.50118765 48.2327791,1.80522565 48.2327791,2.17577197 C48.2327791,2.5415677 48.1662708,2.85035629 48.0380048,3.09738717 C47.9049881,3.34916865 47.7339667,3.55344418 47.5154394,3.71021378 C47.2969121,3.86698337 47.0498812,3.98099762 46.7695962,4.04750594 C46.4893112,4.11401425 46.2042755,4.152019 45.9049881,4.152019 C45.8764846,4.152019 45.8289786,4.152019 45.7624703,4.152019 C45.695962,4.152019 45.6294537,4.152019 45.5581948,4.14726841 C45.4869359,4.14251781 45.415677,4.13776722 45.3491686,4.13301663 C45.2826603,4.12826603 45.2304038,4.12351544 45.2019002,4.11401425 L45.2019002,6.38954869 L44.4940618,6.38954869 L44.4940618,0.465558195 L44.4940618,0.465558195 Z M45.9524941,0.950118765 C45.8052257,0.950118765 45.6627078,0.954869359 45.5249406,0.959619952 C45.3871734,0.964370546 45.2779097,0.978622328 45.2019002,1.0023753 L45.2019002,3.48218527 C45.2304038,3.49168646 45.2779097,3.50118765 45.3396675,3.50118765 C45.4014252,3.50593824 45.4679335,3.50593824 45.5344418,3.51068884 C45.6009501,3.51543943 45.6674584,3.51543943 45.7292162,3.51543943 C45.7909739,3.51543943 45.8384798,3.51543943 45.8669834,3.51543943 C46.0617577,3.51543943 46.2517815,3.49643705 46.4418052,3.4584323 C46.631829,3.42042755 46.807601,3.35391924 46.95962,3.25890736 C47.111639,3.16389549 47.2351544,3.02612827 47.3301663,2.85035629 C47.4251781,2.67458432 47.4726841,2.44655582 47.4726841,2.17577197 C47.4726841,1.94299287 47.4299287,1.74821853 47.3396675,1.59144893 C47.2494062,1.43467933 47.1353919,1.3111639 46.9881235,1.21615202 C46.8408551,1.12114014 46.6793349,1.05463183 46.4940618,1.01662708 C46.3087886,0.978622328 46.1377672,0.950118765 45.9524941,0.950118765 Z" id="Shape"></path>
                                <polygon id="Path" points="50.7268409 0.403800475 53.9857482 0.403800475 53.9857482 1.03562945 51.4394299 1.03562945 51.4394299 2.99287411 53.7719715 2.99287411 53.7719715 3.62470309 51.4394299 3.62470309 51.4394299 5.75296912 54.0285036 5.75296912 54.0285036 6.3847981 50.7268409 6.3847981"></polygon>
                                <path d="M59.6057007,4.73159145 L57.4109264,4.73159145 L56.8171021,6.38954869 L56.1092637,6.38954869 L58.3752969,0.308788599 L58.6983373,0.308788599 L60.9738717,6.38954869 L60.2232779,6.38954869 L59.6057007,4.73159145 Z M57.6389549,4.11401425 L59.391924,4.11401425 L58.7268409,2.29453682 L58.5130641,1.3871734 L58.5035629,1.3871734 L58.2897862,2.3087886 L57.6389549,4.11401425 Z" id="Shape"></path>
                                <polygon id="Path" points="64.327791 3.61995249 63.9239905 3.61995249 63.9239905 6.38954869 63.216152 6.38954869 63.216152 0.403800475 63.9239905 0.403800475 63.9239905 3.19239905 64.3087886 3.0736342 66.3182898 0.403800475 67.1401425 0.403800475 65.1401425 2.97862233 64.7790974 3.25890736 65.216152 3.60095012 67.4061758 6.38954869 66.5083135 6.38954869"></polygon>
                                <polygon id="Path" points="69.8859857 0.403800475 73.1448931 0.403800475 73.1448931 1.03562945 70.5985748 1.03562945 70.5985748 2.99287411 72.9311164 2.99287411 72.9311164 3.62470309 70.5985748 3.62470309 70.5985748 5.75296912 73.1876485 5.75296912 73.1876485 6.3847981 69.8859857 6.3847981 69.8859857 0.403800475"></polygon>
                                <path d="M75.9239905,0.465558195 C76.1425178,0.427553444 76.3895487,0.394299287 76.6745843,0.370546318 C76.9548694,0.346793349 77.216152,0.337292162 77.4489311,0.337292162 C77.7102138,0.337292162 77.9619952,0.365795724 78.1947743,0.42280285 C78.432304,0.479809976 78.6413302,0.574821853 78.8171021,0.703087886 C78.9928741,0.831353919 79.1401425,1.00712589 79.2494062,1.21615202 C79.3586698,1.42517815 79.4109264,1.68171021 79.4109264,1.98574822 C79.4109264,2.45130641 79.2826603,2.83135392 79.0261283,3.12114014 C78.7695962,3.41092637 78.4465558,3.60570071 78.0522565,3.70071259 L78.4608076,4.01900238 L79.9477435,6.38954869 L79.1163895,6.38954869 L77.4679335,3.80522565 L76.631829,3.67695962 L76.631829,6.38954869 L75.9239905,6.38954869 L75.9239905,0.465558195 L75.9239905,0.465558195 Z M77.4631829,0.950118765 C77.3871734,0.950118765 77.3111639,0.950118765 77.2304038,0.950118765 C77.1496437,0.950118765 77.0736342,0.954869359 76.9976247,0.959619952 C76.9216152,0.964370546 76.8551069,0.96912114 76.7885986,0.978622328 C76.7220903,0.983372922 76.6698337,0.992874109 76.631829,1.0023753 L76.631829,3.20665083 L77.2969121,3.20665083 C77.6912114,3.20665083 78.0142518,3.11163895 78.2707838,2.91686461 C78.5273159,2.72209026 78.6555819,2.42280285 78.6555819,2.00950119 C78.6555819,1.70071259 78.5510689,1.44893112 78.3372922,1.24940618 C78.1330166,1.04988124 77.8384798,0.950118765 77.4631829,0.950118765 Z" id="Shape"></path>
                                <path d="M87.672209,4.09501188 L86.304038,6.04750594 L85.8574822,5.68646081 L86.6793349,4.45130641 L87.0973872,4.09976247 L86.6793349,3.79097387 L85.8052257,2.58907363 L86.2517815,2.22327791 L87.672209,4.09501188 Z M89.2304038,4.09501188 L87.8622328,6.06650831 L87.4014252,5.695962 L88.2375297,4.45130641 L88.6460808,4.09976247 L88.2375297,3.79097387 L87.3491686,2.57957245 L87.8004751,2.20427553 L89.2304038,4.09501188 Z" id="Shape"></path>
                                <path d="M98.0475059,4.73159145 L95.8527316,4.73159145 L95.2589074,6.38954869 L94.5510689,6.38954869 L96.8171021,0.308788599 L97.1401425,0.308788599 L99.415677,6.38954869 L98.6650831,6.38954869 L98.0475059,4.73159145 Z M96.0807601,4.11401425 L97.8337292,4.11401425 L97.1686461,2.29453682 L96.9548694,1.3871734 L96.9453682,1.3871734 L96.7315914,2.3087886 L96.0807601,4.11401425 Z" id="Shape"></path>
                                <path d="M101.662708,0.403800475 C101.771971,0.3847981 101.890736,0.375296912 102.023753,0.365795724 C102.15677,0.356294537 102.299287,0.351543943 102.441805,0.346793349 C102.589074,0.342042755 102.731591,0.342042755 102.869359,0.337292162 C103.007126,0.332541568 103.140143,0.332541568 103.258907,0.332541568 C103.738717,0.332541568 104.152019,0.408551069 104.503563,0.555819477 C104.855107,0.703087886 105.144893,0.912114014 105.372922,1.17814727 C105.60095,1.44418052 105.771971,1.76247031 105.881235,2.13301663 C105.990499,2.50356295 106.047506,2.91211401 106.047506,3.35391924 C106.047506,3.75771971 105.995249,4.14726841 105.890736,4.52256532 C105.786223,4.89786223 105.619952,5.22565321 105.391924,5.51543943 C105.163895,5.80522565 104.869359,6.03325416 104.503563,6.20902613 C104.137767,6.3847981 103.695962,6.47030879 103.178147,6.47030879 C103.087886,6.47030879 102.969121,6.47030879 102.821853,6.46555819 C102.674584,6.4608076 102.527316,6.45605701 102.375297,6.44655582 C102.223278,6.43705463 102.08076,6.43230404 101.947743,6.42755344 C101.814727,6.42280285 101.724466,6.41330166 101.667458,6.40380048 L101.667458,0.403800475 L101.662708,0.403800475 Z M103.27791,0.96912114 C103.2019,0.96912114 103.12114,0.96912114 103.035629,0.96912114 C102.945368,0.96912114 102.859857,0.973871734 102.774347,0.978622328 C102.688836,0.983372922 102.612827,0.988123515 102.536817,0.997624703 C102.465558,1.0023753 102.408551,1.00712589 102.370546,1.01662708 L102.370546,5.80522565 C102.39905,5.80997625 102.451306,5.81472684 102.532067,5.81947743 C102.612827,5.82422803 102.693587,5.82422803 102.779097,5.82897862 C102.864608,5.83372922 102.945368,5.83372922 103.026128,5.83847981 C103.106888,5.8432304 103.159145,5.8432304 103.187648,5.8432304 C103.586698,5.8432304 103.91924,5.77672209 104.194774,5.63895487 C104.465558,5.50118765 104.684086,5.31591449 104.845606,5.08788599 C105.007126,4.85510689 105.12114,4.59382423 105.192399,4.29453682 C105.258907,3.99524941 105.296912,3.68646081 105.296912,3.36817102 C105.296912,3.08788599 105.263658,2.80760095 105.2019,2.52731591 C105.140143,2.24703088 105.030879,1.99049881 104.87886,1.76247031 C104.726841,1.53444181 104.517815,1.34916865 104.261283,1.20190024 C104.004751,1.05463183 103.672209,0.96912114 103.27791,0.96912114 Z" id="Shape"></path>
                                <polygon id="Path" points="110.042755 4.51781473 110.247031 5.42517815 110.256532 5.42517815 110.47981 4.50356295 111.92399 0.408551069 112.631829 0.408551069 110.365796 6.48931116 110.047506 6.48931116 107.738717 0.408551069 108.517815 0.408551069"></polygon>
                                <path d="M114.327791,3.39667458 C114.327791,2.39904988 114.536817,1.63420428 114.95962,1.10213777 C115.382423,0.570071259 115.980998,0.304038005 116.764846,0.304038005 C117.187648,0.304038005 117.553444,0.380047506 117.857482,0.527315914 C118.166271,0.674584323 118.418052,0.883610451 118.622328,1.1543943 C118.826603,1.42517815 118.973872,1.74821853 119.073634,2.12826603 C119.173397,2.50831354 119.220903,2.93111639 119.220903,3.39667458 C119.220903,4.39429929 119.007126,5.15914489 118.584323,5.6912114 C118.16152,6.22327791 117.553444,6.48931116 116.764846,6.48931116 C116.346793,6.48931116 115.990499,6.41330166 115.68171,6.26603325 C115.377672,6.11876485 115.12114,5.90973872 114.921615,5.63895487 C114.71734,5.36817102 114.570071,5.04513064 114.475059,4.66508314 C114.375297,4.28978622 114.327791,3.86698337 114.327791,3.39667458 Z M115.078385,3.39667458 C115.078385,3.72921615 115.111639,4.04275534 115.178147,4.33729216 C115.244656,4.63182898 115.344418,4.89311164 115.482185,5.12114014 C115.619952,5.34441805 115.795724,5.52494062 116.009501,5.65795724 C116.223278,5.79097387 116.475059,5.85748219 116.764846,5.85748219 C117.296912,5.85748219 117.710214,5.65795724 118.014252,5.25415677 C118.31829,4.85035629 118.465558,4.2327791 118.465558,3.39192399 C118.465558,3.06888361 118.432304,2.75534442 118.365796,2.45605701 C118.299287,2.1567696 118.199525,1.89548694 118.057007,1.66745843 C117.91924,1.44418052 117.738717,1.26365796 117.524941,1.13064133 C117.311164,0.997624703 117.054632,0.93111639 116.760095,0.93111639 C116.23753,0.93111639 115.824228,1.13064133 115.524941,1.53444181 C115.225653,1.93824228 115.078385,2.56057007 115.078385,3.39667458 Z" id="Shape"></path>
                                <path d="M125.705463,6.14251781 C125.534442,6.27553444 125.315914,6.36579572 125.054632,6.41805226 C124.793349,6.47030879 124.513064,6.49406176 124.218527,6.49406176 C123.857482,6.49406176 123.524941,6.43230404 123.211401,6.3087886 C122.897862,6.18527316 122.622328,6 122.389549,5.74821853 C122.15677,5.49643705 121.971496,5.17814727 121.833729,4.78384798 C121.695962,4.39429929 121.629454,3.92874109 121.629454,3.39667458 C121.629454,2.83610451 121.705463,2.36579572 121.857482,1.97149644 C122.009501,1.58194774 122.209026,1.26365796 122.456057,1.01187648 C122.703088,0.764845606 122.983373,0.58432304 123.287411,0.470308789 C123.591449,0.356294537 123.909739,0.299287411 124.228029,0.299287411 C124.570071,0.299287411 124.850356,0.318289786 125.064133,0.356294537 C125.27791,0.394299287 125.467933,0.441805226 125.619952,0.508313539 L125.448931,1.14014252 C125.173397,1.0023753 124.783848,0.935866983 124.275534,0.935866983 C124.042755,0.935866983 123.809976,0.978622328 123.581948,1.06413302 C123.353919,1.14964371 123.149644,1.28741093 122.969121,1.48218527 C122.788599,1.67695962 122.646081,1.92874109 122.536817,2.24228029 C122.427553,2.55581948 122.375297,2.94061758 122.375297,3.39667458 C122.375297,3.80522565 122.427553,4.16627078 122.527316,4.47505938 C122.631829,4.78384798 122.769596,5.04038005 122.950119,5.24465558 C123.130641,5.44893112 123.339667,5.60570071 123.581948,5.70546318 C123.824228,5.80997625 124.090261,5.85748219 124.375297,5.85748219 C124.631829,5.85748219 124.855107,5.83372922 125.045131,5.78147268 C125.235154,5.72921615 125.396675,5.66270784 125.529691,5.58669834 L125.705463,6.14251781 Z" id="Path"></path>
                                <path d="M130.817102,4.73159145 L128.622328,4.73159145 L128.028504,6.38954869 L127.315914,6.38954869 L129.581948,0.308788599 L129.904988,0.308788599 L132.180523,6.38954869 L131.429929,6.38954869 L130.817102,4.73159145 Z M128.850356,4.11401425 L130.603325,4.11401425 L129.938242,2.29453682 L129.724466,1.3871734 L129.714964,1.3871734 L129.501188,2.3087886 L128.850356,4.11401425 Z" id="Shape"></path>
                                <polygon id="Path" points="137.724466 1.04038005 135.862233 1.04038005 135.862233 6.39429929 135.154394 6.39429929 135.154394 1.04038005 133.292162 1.04038005 133.292162 0.408551069 137.729216 0.408551069 137.729216 1.04038005"></polygon>
                                <polygon id="Path" points="140.057007 0.403800475 143.315914 0.403800475 143.315914 1.03562945 140.769596 1.03562945 140.769596 2.99287411 143.102138 2.99287411 143.102138 3.62470309 140.769596 3.62470309 140.769596 5.75296912 143.35867 5.75296912 143.35867 6.3847981 140.057007 6.3847981"></polygon>
                            </g>
                        </g>
                        <g id="Group" fill="#FAA342">
                            <path d="M2.73159145,40.3135392 C2.55106888,40.4940618 2.35154394,40.6460808 2.14251781,40.7695962 L18.736342,40.7695962 C19.0023753,37.04038 19.4916865,31.3586698 20.3515439,24.7458432 C13.9477435,29.9382423 7.47268409,35.5296912 2.73159145,40.3135392 Z M12.0760095,36.0950119 C12.9928741,36.0950119 13.7339667,36.8361045 13.7339667,37.7529691 C13.7339667,38.6698337 12.9928741,39.4109264 12.0760095,39.4109264 C11.1591449,39.4109264 10.4180523,38.6698337 10.4180523,37.7529691 C10.4180523,36.8408551 11.1591449,36.0950119 12.0760095,36.0950119 Z" id="Shape"></path>
                            <path d="M34.4133017,9.98574822 C36.5605701,8.59857482 38.7458432,7.27315914 40.9548694,6.04750594 L40.9548694,3.42517815 C40.9548694,1.59144893 39.4679335,0.104513064 37.6342043,0.104513064 L36.5415677,0.104513064 C35.9714964,2.62232779 35.2209026,6.06175772 34.4133017,9.98574822 Z" id="Path"></path>
                            <path d="M29.4869359,17.5724466 C27.7387173,18.9026128 25.9049881,20.3230404 24.0380048,21.8004751 C22.8551069,28.4845606 21.847981,35.3159145 21.4774347,40.7743468 L26.8361045,40.7743468 C27.1971496,35.7482185 27.9619952,27.1781473 29.4869359,17.5724466 Z" id="Path"></path>
                            <path d="M7.89073634,4.17577197 C8.05700713,3.13539192 9.06413302,2.44655582 10.0950119,2.68408551 L10.1235154,2.6888361 C11.1021378,2.91686461 11.7149644,3.89073634 11.4821853,4.86935867 C10.0665083,10.9073634 5.33491686,30.5890736 2.55581948,36.1472684 C2.55581948,36.1472684 10.2565321,28.2232779 21.0688836,19.6247031 C22.0047506,13.4061758 23.2589074,6.66033254 24.935867,0.0997624703 L3.63420428,0.0997624703 C1.78622328,0.0997624703 0.285035629,1.60095012 0.285035629,3.44893112 L0.285035629,30.2185273 C3.0736342,22.2375297 6.85510689,10.7125891 7.89073634,4.17577197 Z" id="Path"></path>
                            <path d="M33.4916865,14.5700713 C31.7862233,23.2779097 30.0855107,33.3111639 29.5819477,40.7743468 L37.6294537,40.7743468 C39.4631829,40.7743468 40.9501188,39.2874109 40.9501188,37.4536817 L40.9501188,9.3064133 C39.1211401,10.5035629 36.5225653,12.3325416 33.4916865,14.5700713 Z M36.631829,38.1947743 C35.7149644,38.1947743 34.9738717,37.4536817 34.9738717,36.5368171 C34.9738717,35.6199525 35.7149644,34.8788599 36.631829,34.8788599 C37.5486936,34.8788599 38.2898088,35.6199525 38.2898088,36.5368171 C38.2945368,37.4536817 37.5486936,38.1947743 36.631829,38.1947743 Z" id="Shape"></path>
                            <path d="M28.4370546,0.104513064 C27.567696,3.96199525 26.2612827,9.98574822 24.9976247,16.584323 C26.7173397,15.2874109 28.4893112,13.9952494 30.3087886,12.7315914 C31.064133,8.57007126 31.9619952,4.29928741 33.0356295,0.104513064 L28.4370546,0.104513064 Z" id="Path"></path>
                        </g>
                    </g>
                </g>
            </g>
        </g>
    </g>
</svg>