<?xml version="1.0" encoding="UTF-8"?>
<svg width="48px" height="48px" viewBox="0 0 48 48" version="1.1" xmlns="http://www.w3.org/2000/svg" xmlns:xlink="http://www.w3.org/1999/xlink">
    <!-- Generator: Sketch 61 (89581) - https://sketch.com -->
    <title>twitter</title>
    <desc>Created with Sketch.</desc>
    <g id="Symbols" stroke="none" stroke-width="1" fill="none" fill-rule="evenodd">
        <g id="global/footer" transform="translate(-1244.000000, -345.000000)">
            <g id="footer">
                <g id="middle" transform="translate(120.000000, 254.000000)">
                    <g id="contact" transform="translate(926.000000, 0.000000)">
                        <g id="social" transform="translate(0.000000, 91.000000)">
                            <g id="twitter" transform="translate(198.000000, 0.000000)">
                                <circle id="Oval-Copy-2" fill="#503F44" cx="24" cy="24" r="24"></circle>
                                <path d="M38,15.6935428 C36.9706676,16.151087 35.8628991,16.4597162 34.7005663,16.597832 C35.8873394,15.8873597 36.7973124,14.7619715 37.2264377,13.4194629 C36.1163957,14.0782129 34.8875627,14.5562187 33.5785884,14.8142622 C32.5310679,13.697968 31.0379392,13 29.3856647,13 C26.2135477,13 23.6416377,15.57191 23.6416377,18.7445953 C23.6416377,19.1941822 23.6922234,19.6324016 23.7905527,20.0535696 C19.0161785,19.8137141 14.7828999,17.5271299 11.9495362,14.0514991 C11.4550474,14.8995189 11.1719952,15.8862229 11.1719952,16.9399955 C11.1719952,18.9327284 12.1859814,20.6912896 13.7274222,21.7211903 C12.7861884,21.6910663 11.9000873,21.4324544 11.1253882,21.0021923 C11.1248198,21.0260642 11.1248198,21.0505044 11.1248198,21.0749447 C11.1248198,23.8577228 13.1050484,26.1789781 15.7332278,26.7075696 C15.2512433,26.8382965 14.7436819,26.9087753 14.2196375,26.9087753 C13.8490551,26.9087753 13.4892719,26.8729675 13.1385827,26.8053306 C13.8700851,29.0873678 15.9912713,30.7487364 18.5046384,30.794775 C16.5386192,32.3356474 14.0621968,33.2541461 11.3703591,33.2541461 C10.9071311,33.2541461 10.4495869,33.226864 10,33.1734365 C12.5429227,34.8041126 15.562146,35.7544405 18.8058787,35.7544405 C29.372592,35.7544405 35.1501533,27.0014209 35.1501533,19.4101658 C35.1501533,19.1612163 35.1450379,18.9128352 35.1342387,18.6661592 C36.2562166,17.8579258 37.2304163,16.8456448 38,15.6935428 Z" id="Path" fill="#2C1C20" fill-rule="nonzero"></path>
                            </g>
                        </g>
                    </g>
                </g>
            </g>
        </g>
    </g>
</svg>