<?xml version="1.0" encoding="UTF-8"?>
<svg width="48px" height="48px" viewBox="0 0 48 48" version="1.1" xmlns="http://www.w3.org/2000/svg" xmlns:xlink="http://www.w3.org/1999/xlink">
    <!-- Generator: Sketch 60.1 (88133) - https://sketch.com -->
    <title>youtube</title>
    <desc>Created with Sketch.</desc>
    <g id="Symbols" stroke="none" stroke-width="1" fill="none" fill-rule="evenodd">
        <g id="global/footer" transform="translate(-1046.000000, -345.000000)">
            <g id="footer">
                <g id="middle" transform="translate(120.000000, 254.000000)">
                    <g id="contact" transform="translate(926.000000, 0.000000)">
                        <g id="social" transform="translate(0.000000, 91.000000)">
                            <g id="youtube">
                                <circle id="Oval" fill="#503F44" cx="24" cy="24" r="24"></circle>
                                <g id="g3294" transform="translate(10.000000, 8.000000)" fill="#2C1C20">
                                    <path d="M23.0443454,18.8901664 C22.7525088,18.8901664 22.541563,19.0260669 22.4639418,19.2570035 C22.4329417,19.3595765 22.3956447,19.2509975 22.3956447,19.9739551 L22.3956447,21.229798 L23.6591398,21.229798 L23.6591398,19.9739551 C23.6591398,19.3006942 23.6186944,19.4004409 23.5876944,19.2963369 C23.5069246,19.0412585 23.305182,18.8901664 23.0443454,18.8901664 Z M16.9539211,19.3235406 C16.6838814,19.3235406 16.475963,19.47899 16.3983418,19.7340684 C16.3609237,19.8501843 16.3204783,20.0798256 16.3204783,20.8540108 L16.3204783,23.1605506 C16.3204783,23.9091809 16.3670995,24.1491854 16.4075449,24.2728384 C16.4943693,24.5431085 16.6993815,24.6985579 16.9695423,24.6985579 C17.2489062,24.6985579 17.4536763,24.5371024 17.5373522,24.2547027 C17.5716218,24.1295188 17.6152157,23.8803286 17.6152157,23.0651612 L17.6152157,20.8538931 C17.6152157,20.1249294 17.5621765,19.8802144 17.5251217,19.7611542 C17.4350277,19.484996 17.2271093,19.3235406 16.9539211,19.3235406 Z M27.3715196,16.0012801 C27.1387768,13.9333316 25.2545537,12.2457631 23.1344394,12.1007948 C16.9104484,11.8426545 10.6989301,11.8426545 4.47179064,12.1007948 C2.35785215,12.2456454 0.470480583,13.9333316 0.237737857,16.0012801 C0.00499512877,19.2691333 0.00499512877,22.4826969 0.237737857,25.7521989 C0.470480583,27.8186163 2.35785215,29.5077157 4.47179064,29.6525663 C10.6989301,29.9122375 16.9103273,29.9091757 23.1344394,29.6525663 C25.2545537,29.5077157 27.1387768,27.8186163 27.3715196,25.7521989 C27.6045045,22.4826969 27.6045045,19.2691333 27.3715196,16.0012801 Z M8.04479112,16.6306147 L6.27851359,16.6306147 L6.27851359,26.2668306 L4.42856008,26.2668306 L4.42856008,16.6306147 L2.66845834,16.6306147 L2.66845834,14.8027885 L8.04479112,14.8027885 L8.04479112,16.6306147 Z M11.3756036,26.2789604 L11.4004278,25.7989514 L10.8478758,25.6659951 C10.7081332,25.933321 10.5375117,26.1324611 10.3450934,26.2622379 C10.1557023,26.3861263 9.94160801,26.4463041 9.69324414,26.4463041 C9.40758337,26.4463041 9.16842264,26.3874217 8.98847687,26.2727189 C8.80235534,26.1534232 8.6686676,25.9979738 8.58196422,25.8002468 C8.48266715,25.5783781 8.42042481,25.3474415 8.39887007,25.1089679 C8.37077624,24.8522408 8.35842464,24.325597 8.35842464,23.5406951 L8.35842464,17.570966 L10.1090811,17.570966 L10.1090811,23.0471432 C10.1090811,24.0358958 10.1403233,24.2879123 10.1713234,24.3981401 C10.2396204,24.6547494 10.456742,24.8086679 10.7517271,24.8086679 C11.0591848,24.8086679 11.2827244,24.6486256 11.3446034,24.3798866 C11.3724551,24.2682456 11.4004278,24.0131672 11.4004278,22.9777798 L11.4004278,17.570966 L13.148299,17.570966 L13.148299,26.2789604 L11.3756036,26.2789604 Z M19.3627237,24.5385156 C19.3627237,24.5068369 19.3253056,25.0306544 19.2572507,25.365695 C19.191981,25.6629332 19.0490901,25.9136542 18.8163473,26.1354052 C18.5928078,26.3452619 18.3319712,26.4464218 18.027783,26.4464218 C17.8073919,26.4464218 17.611704,26.3861263 17.4195277,26.2623556 C17.2177851,26.1324611 17.0314214,25.9287281 16.8575303,25.6570449 L16.4694239,25.0472592 L16.3267752,25.7565561 L16.2243297,26.2667129 L14.5697008,26.2667129 L14.5697008,14.8026708 L16.3203572,14.8026708 L16.3203572,18.9565857 L16.8543819,18.155079 C17.0220971,17.9061244 17.2082186,17.7188785 17.4037855,17.6011138 C17.5993523,17.483349 17.801095,17.4274108 18.0276619,17.4274108 C18.2946743,17.4274108 18.527417,17.4818181 18.7168081,17.5845089 C18.9029296,17.687082 19.0396448,17.8274576 19.1359145,18.0086975 C19.2413874,18.2094863 19.3066571,18.4027382 19.3251845,18.5898663 C19.4311418,19.5332795 19.3627237,20.0028074 19.3627237,19.9862026 L19.3627237,24.5385156 Z M22.3956447,22.1763908 L22.3956447,24.1160935 C22.3956447,24.7137495 22.4452933,24.9100633 22.4888871,25.0156982 C22.5821295,25.2389802 22.7868996,25.3673437 23.0506423,25.3673437 C23.3519243,25.3673437 23.5816397,25.2134252 23.6809367,24.947748 C23.7523822,24.7559093 23.789437,24.4329984 23.789437,23.9347359 L23.789437,23.0003906 L25.4162142,23.0003906 L25.4162142,23.4050302 C25.4162142,23.9514585 25.384972,24.3755292 25.3291476,24.6608731 C25.2763506,24.9325563 25.1492019,25.2282636 24.9474592,25.5452862 C24.7549198,25.8442908 24.5127317,26.0752274 24.2211372,26.2214912 C23.932328,26.3710524 23.5506396,26.4464218 23.0972635,26.4464218 C22.6503054,26.4464218 22.2560233,26.3695215 21.9178077,26.220078 C21.5919437,26.0705168 21.3341345,25.8684326 21.1540676,25.6133542 C20.9679461,25.3446151 20.8342583,25.0472592 20.7597855,24.7257616 C20.6853126,24.3891899 20.6451094,23.8850392 20.6451094,23.540813 L20.6451094,20.8690847 C20.6451094,19.786827 20.7319338,19.1798676 20.8996491,18.7514395 C21.0579189,18.3409117 21.3123375,18.0374321 21.6725923,17.8231003 C22.0326048,17.6057066 22.4611566,17.4955966 22.9360874,17.4955966 C23.5226669,17.4955966 24.007043,17.6283175 24.3795282,17.8863399 C24.7581892,18.1520171 25.0190258,18.4947124 25.1742683,18.9339749 C25.3325383,19.3941994 25.4164565,20.3798901 25.4164565,21.2342731 L25.4164565,22.1763908 L22.3956447,22.1763908 Z" id="path3047" fill-rule="nonzero"></path>
                                    <g id="g3289" transform="translate(4.801190, 0.000000)">
                                        <path d="M2.79967012,4.657829 L1.33140499,0.0660648299 L0.0028823818,0.0660648299 L1.98010572,6.61861158 L1.98955105,6.66995699 L1.98955105,6.72283336 L1.98955105,11.3250786 L3.54791014,11.3250786 L3.54791014,6.72283336 L3.54791014,6.66842605 L3.56026173,6.61566746 L5.27374226,0.0661825946 L3.94195011,0.0661825946 C3.55105858,1.79591079 3.05747931,3.45933745 2.79967012,4.657829 Z" id="path3051"></path>
                                        <path d="M9.982968,3.94535245 C9.80580744,3.67355147 9.54521313,3.44873863 9.20360687,3.27362249 C8.85909431,3.09096941 8.42763629,3.00193928 7.93102971,3.00193928 C7.34735645,3.00193928 6.86624986,3.14078389 6.50296777,3.4141158 C6.14610367,3.68426807 5.90694295,4.0269634 5.77046998,4.46763898 C5.62455167,4.93563597 5.5531062,5.61184099 5.5531062,6.47364321 L5.5531062,8.05110166 C5.5531062,8.84954639 5.5935516,9.45191299 5.67420023,9.83523713 C5.74867306,10.1944195 5.87594288,10.5023742 6.04668546,10.7514466 C6.21440069,10.9929821 6.45658876,11.1771661 6.76998011,11.3009368 C7.11146528,11.4322445 7.53372016,11.5017257 8.03032678,11.5017257 C8.47123019,11.5017257 8.85909431,11.4231766 9.19125527,11.2677272 C9.51106462,11.1213456 9.76548317,10.90089 9.96419847,10.5915222 C10.1689684,10.2805055 10.3024141,9.94546488 10.3646564,9.59075753 C10.4299261,9.20590244 10.4639535,8.57798095 10.4639535,7.72359791 L10.4639535,6.25942918 C10.4639535,5.60135994 10.4265355,5.11369623 10.3584806,4.80432831 C10.293211,4.51592251 10.1660622,4.22610354 9.982968,3.94535245 Z M8.6605001,9.11063077 C8.6605001,9.74455831 8.61085161,9.9694889 8.56749988,10.0947906 C8.47123019,10.3574059 8.26948751,10.5083803 8.00865096,10.5083803 C7.7480566,10.5083803 7.54607176,10.3484558 7.45004419,10.0675869 C7.40657143,9.93627926 7.35377443,9.7008676 7.35377443,9.01406374 L7.35377443,5.51974898 C7.35377443,4.78018654 7.40342299,4.54312616 7.45307154,4.40875662 C7.54934129,4.14461035 7.7541113,3.99375375 8.01482672,3.99375375 C8.27881173,3.99375375 8.48055441,4.14920318 8.57367572,4.42241733 C8.61714845,4.55231182 8.6605001,4.78619254 8.6605001,5.51974898 L8.6605001,9.11063077 Z" id="path3053" fill-rule="nonzero"></path>
                                        <path d="M14.958964,3.02160599 L14.958964,8.48129616 C14.958964,9.59370168 14.9279639,9.56508488 14.8967216,9.69792346 C14.8626942,9.8473669 14.7354244,10.1945372 14.2884663,10.1945372 C13.8663325,10.1945372 13.7328869,9.86244081 13.6955899,9.72206524 C13.6615625,9.58475157 13.6241445,9.6224363 13.6241445,8.55383917 L13.6241445,3.02172376 L11.8206911,3.02172376 L11.8206911,8.49648783 C11.8206911,9.32213623 11.83607,9.8776324 11.8608943,10.1433096 C11.8826912,10.3817832 11.9415429,10.6127198 12.0378127,10.8316444 C12.1248793,11.0278404 12.2551764,11.1863517 12.4415402,11.3085915 C12.6338375,11.4368373 12.8884982,11.5018434 13.1988622,11.5018434 C13.4689019,11.5018434 13.6955899,11.4354242 13.8973326,11.2981105 C14.0960479,11.16221 14.2606146,10.9615389 14.400115,10.683732 L14.958964,10.9041874 L14.937167,11.3253141 L16.7625385,11.3253141 L16.7625385,3.02184152 L14.958964,3.02184152 L14.958964,3.02160599 Z" id="path3055"></path>
                                    </g>
                                </g>
                            </g>
                        </g>
                    </g>
                </g>
            </g>
        </g>
    </g>
</svg>