<?xml version="1.0" encoding="UTF-8"?>
<svg width="78px" height="98px" viewBox="0 0 78 98" version="1.1" xmlns="http://www.w3.org/2000/svg" xmlns:xlink="http://www.w3.org/1999/xlink">
    <!-- Generator: Sketch 60 (88103) - https://sketch.com -->
    <title>iconfinder_Noun_Project_100Icon_10px_grid-06_296926</title>
    <desc>Created with Sketch.</desc>
    <g id="about" stroke="none" stroke-width="1" fill="none" fill-rule="evenodd">
        <g id="About" transform="translate(-355.000000, -2168.000000)" fill="#6E1141" fill-rule="nonzero">
            <g id="body" transform="translate(0.000000, 769.000000)">
                <g id="Downloads" transform="translate(0.000000, 1247.000000)">
                    <g id="resume" transform="translate(283.000000, 152.000000)">
                        <g id="iconfinder_Noun_Project_100Icon_10px_grid-06_296926" transform="translate(72.000000, 0.000000)">
                            <rect id="Rectangle" x="9.18000036" y="15.8403606" width="19.8007208" height="2.16000009"></rect>
                            <rect id="Rectangle" x="9.18000036" y="23.7600009" width="39.6003616" height="2.16000009"></rect>
                            <rect id="Rectangle" x="9.18000036" y="31.6796413" width="39.6003616" height="2.16000009"></rect>
                            <rect id="Rectangle" x="9.18000036" y="39.6003616" width="39.6003616" height="2.16000009"></rect>
                            <path d="M61.7403625,49.214522 L61.7403625,0 L4.14072016,0 L4.14072016,3.96036016 L0.180360007,3.96036016 L0.180360007,77.4003631 L28.4148011,77.4003631 C30.7508412,88.6885235 40.7689216,97.2000039 52.7396421,97.2000039 C66.4372826,97.2000039 77.5796431,86.0565634 77.5796431,72.3600029 C77.5796431,61.8375625 70.9992028,52.8282021 61.7403625,49.214522 Z M6.30072025,2.16000009 L59.5803624,2.16000009 L59.5803624,48.4855219 C58.9874423,48.3159619 58.3891223,48.1615219 57.7800023,48.0351619 L57.7800023,3.96036016 L6.30072025,3.96036016 L6.30072025,2.16000009 Z M27.9266411,73.4400029 C27.9525611,74.0458829 28.0022411,74.645283 28.0713611,75.240363 L2.34036009,75.240363 L2.34036009,6.12036024 L4.14072016,6.12036024 L6.30072025,6.12036024 L55.6200022,6.12036024 L55.6200022,47.6928019 C54.6739222,47.5826419 53.7138021,47.5200019 52.7396421,47.5200019 C51.391802,47.5200019 50.069882,47.6323219 48.7803619,47.8386019 L48.7803619,47.5200019 L9.18000036,47.5200019 L9.18000036,49.680002 L42.6276017,49.680002 C34.2694814,53.4211221 28.3413611,61.6464024 27.9277211,71.2800028 C27.9115211,71.6385628 27.9007211,71.9982029 27.9007211,72.3600029 C27.9007211,72.7218029 27.9115211,73.0814429 27.9266411,73.4400029 Z M52.7396421,95.0400038 C41.9677217,95.0400038 32.9443213,87.4843235 30.6439212,77.4003631 C30.5618412,77.0428831 30.4927212,76.683243 30.4290012,76.320363 C30.3652812,75.962883 30.3102012,75.603243 30.2637612,75.240363 C30.1881612,74.647443 30.1438812,74.0469629 30.1147212,73.4400029 C30.0974412,73.0803629 30.0596412,72.7239629 30.0596412,72.3600029 C30.0596412,71.9960429 30.0974412,71.6396428 30.1147212,71.2800028 C30.6838812,59.2768824 40.5993616,49.680002 52.7396421,49.680002 C53.7170421,49.680002 54.6739222,49.763162 55.6200022,49.883042 C55.9828822,49.929482 56.3425222,49.985642 56.7000023,50.048282 C57.0628823,50.113082 57.4236023,50.182202 57.7800023,50.263202 C58.3880423,50.401442 58.9917623,50.551562 59.5803624,50.738402 C60.3180024,50.972762 61.0372824,51.246002 61.7403625,51.551642 C69.7788028,55.0432822 75.419643,63.0514825 75.419643,72.3600029 C75.419643,84.8664034 65.2449626,95.0400038 52.7396421,95.0400038 Z" id="Shape"></path>
                            <polygon id="Path" points="53.7570021 82.1523633 53.7732021 77.4003631 53.7764421 76.320363 53.7796821 75.240363 53.7861621 73.4400029 53.7926421 71.2800028 53.8272021 60.4832424 51.6369621 60.4767624 51.6024021 71.2800028 51.5959221 73.4400029 51.5905221 75.240363 51.587282 76.320363 51.584042 77.4003631 51.567842 82.1188833 44.4646818 77.4003631 42.8392817 76.320363 41.4666016 75.407763 40.8596416 76.320363 40.2526816 77.2318831 40.5054016 77.4003631 52.6446021 85.4636434 65.3745626 77.3258431 64.1952026 75.480123"></polygon>
                        </g>
                    </g>
                </g>
            </g>
        </g>
    </g>
</svg>